<svg xmlns="http://www.w3.org/2000/svg" width="1937.523" height="829.715" viewBox="0 0 1937.523 829.715">
  <g id="Group_20" data-name="Group 20" transform="translate(308.249 1018.075)">
    <g id="Group_9" data-name="Group 9" transform="translate(1010.25 -717)">
      <g id="Group_1" data-name="Group 1" transform="translate(375.797)">
        <path id="Path_86" data-name="Path 86" d="M452.155,415.337c0-67.165-54.448-226.546-121.614-226.546S208.927,348.171,208.927,415.337a121.614,121.614,0,1,0,243.227,0Z" transform="translate(-208.927 -188.791)" fill="#0bc200"/>
        <path id="Path_87" data-name="Path 87" d="M330.541,711.209a1,1,0,0,0,1-1V290.925a1,1,0,0,0-2,0V710.209A1,1,0,0,0,330.541,711.209Z" transform="translate(-208.927 -188.791)" fill="#3f3d56"/>
        <path id="Path_88" data-name="Path 88" d="M282.406,371.871a1,1,0,0,0,.707-.293l48.135-48.134a1,1,0,1,0-1.414-1.414L281.7,370.164a1,1,0,0,0,.707,1.707Z" transform="translate(-160.792 -188.791)" fill="#3f3d56"/>
        <path id="Path_89" data-name="Path 89" d="M411.151,455.2a1,1,0,0,0,.707-1.707l-80.61-80.61a1,1,0,0,0-1.414,1.414l80.61,80.61a1,1,0,0,0,.707.293Z" transform="translate(-289.537 -188.791)" fill="#3f3d56"/>
      </g>
      <g id="Group_2" data-name="Group 2" transform="translate(214.567 222.881)">
        <path id="Path_86-2" data-name="Path 86" d="M348.386,318.685c0-38.51-31.219-129.894-69.729-129.894s-69.729,91.383-69.729,129.894a69.729,69.729,0,1,0,139.458,0Z" transform="translate(-208.927 -188.791)" fill="#0bc200"/>
        <path id="Path_87-2" data-name="Path 87" d="M330.114,531.475a.573.573,0,0,0,.573-.573V290.5a.573.573,0,0,0-1.147,0V530.9A.573.573,0,0,0,330.114,531.475Z" transform="translate(-260.385 -231.938)" fill="#3f3d56"/>
        <path id="Path_88-2" data-name="Path 88" d="M281.98,350.482a.571.571,0,0,0,.405-.168l27.6-27.6a.573.573,0,1,0-.811-.811l-27.6,27.6a.573.573,0,0,0,.405.979Z" transform="translate(-212.251 -245.51)" fill="#3f3d56"/>
        <path id="Path_89-2" data-name="Path 89" d="M376.333,419.957a.573.573,0,0,0,.405-.979L330.52,372.759a.573.573,0,0,0-.811.811l46.219,46.219A.572.572,0,0,0,376.333,419.957Z" transform="translate(-306.604 -267.206)" fill="#3f3d56"/>
      </g>
      <g id="Group_4" data-name="Group 4" transform="translate(99.025 384.65)">
        <path id="Path_86-3" data-name="Path 86" d="M272.927,248.4c0-17.673-14.327-59.61-32-59.61s-32,41.937-32,59.61a32,32,0,1,0,64,0Z" transform="translate(-208.927 -188.791)" fill="#0bc200"/>
        <path id="Path_87-3" data-name="Path 87" d="M329.8,400.776a.263.263,0,0,0,.263-.263V290.188a.263.263,0,1,0-.526,0V400.513A.263.263,0,0,0,329.8,400.776Z" transform="translate(-297.804 -263.314)" fill="#3f3d56"/>
        <path id="Path_88-3" data-name="Path 88" d="M281.67,334.928a.263.263,0,0,0,.186-.077l12.666-12.665a.263.263,0,1,0-.372-.372l-12.666,12.665a.263.263,0,0,0,.186.449Z" transform="translate(-249.67 -286.755)" fill="#3f3d56"/>
        <path id="Path_89-3" data-name="Path 89" d="M351.015,394.328a.263.263,0,0,0,.186-.449L329.99,372.668a.263.263,0,1,0-.372.372l21.211,21.211A.262.262,0,0,0,351.015,394.328Z" transform="translate(-319.015 -324.228)" fill="#3f3d56"/>
      </g>
      <g id="Group_12" data-name="Group 12" transform="translate(-278.567 384.65)">
        <path id="Path_86-4" data-name="Path 86" d="M272.927,248.4c0-17.673-14.327-59.61-32-59.61s-32,41.937-32,59.61a32,32,0,1,0,64,0Z" transform="translate(-208.927 -188.791)" fill="#0bc200"/>
        <path id="Path_87-4" data-name="Path 87" d="M329.8,400.776a.263.263,0,0,0,.263-.263V290.188a.263.263,0,1,0-.526,0V400.513A.263.263,0,0,0,329.8,400.776Z" transform="translate(-297.804 -263.314)" fill="#3f3d56"/>
        <path id="Path_88-4" data-name="Path 88" d="M281.67,334.928a.263.263,0,0,0,.186-.077l12.666-12.665a.263.263,0,1,0-.372-.372l-12.666,12.665a.263.263,0,0,0,.186.449Z" transform="translate(-249.67 -286.755)" fill="#3f3d56"/>
        <path id="Path_89-4" data-name="Path 89" d="M351.015,394.328a.263.263,0,0,0,.186-.449L329.99,372.668a.263.263,0,1,0-.372.372l21.211,21.211A.262.262,0,0,0,351.015,394.328Z" transform="translate(-319.015 -324.228)" fill="#3f3d56"/>
      </g>
      <g id="Group_6" data-name="Group 6" transform="translate(226.069 422.548)">
        <path id="Path_86-5" data-name="Path 86" d="M255.425,232.1c0-12.84-10.409-43.308-23.249-43.308s-23.249,30.468-23.249,43.308a23.249,23.249,0,1,0,46.5,0Z" transform="translate(-208.927 -188.791)" fill="#0bc200"/>
        <path id="Path_87-5" data-name="Path 87" d="M329.732,370.461a.191.191,0,0,0,.191-.191V290.116a.191.191,0,1,0-.382,0V370.27A.191.191,0,0,0,329.732,370.461Z" transform="translate(-306.483 -270.591)" fill="#3f3d56"/>
        <path id="Path_88-5" data-name="Path 88" d="M281.6,331.321a.191.191,0,0,0,.135-.056l9.2-9.2a.191.191,0,0,0-.27-.27l-9.2,9.2a.191.191,0,0,0,.135.326Z" transform="translate(-258.349 -296.322)" fill="#3f3d56"/>
        <path id="Path_89-5" data-name="Path 89" d="M345.142,388.383a.191.191,0,0,0,.135-.326l-15.41-15.41a.191.191,0,1,0-.27.27l15.41,15.41A.191.191,0,0,0,345.142,388.383Z" transform="translate(-321.893 -337.454)" fill="#3f3d56"/>
      </g>
      <g id="Group_13" data-name="Group 13" transform="translate(-10.516 422.548)">
        <path id="Path_86-6" data-name="Path 86" d="M255.425,232.1c0-12.84-10.409-43.308-23.249-43.308s-23.249,30.468-23.249,43.308a23.249,23.249,0,1,0,46.5,0Z" transform="translate(-208.927 -188.791)" fill="#0bc200"/>
        <path id="Path_87-6" data-name="Path 87" d="M329.732,370.461a.191.191,0,0,0,.191-.191V290.116a.191.191,0,1,0-.382,0V370.27A.191.191,0,0,0,329.732,370.461Z" transform="translate(-306.483 -270.591)" fill="#3f3d56"/>
        <path id="Path_88-6" data-name="Path 88" d="M281.6,331.321a.191.191,0,0,0,.135-.056l9.2-9.2a.191.191,0,0,0-.27-.27l-9.2,9.2a.191.191,0,0,0,.135.326Z" transform="translate(-258.349 -296.322)" fill="#3f3d56"/>
        <path id="Path_89-6" data-name="Path 89" d="M345.142,388.383a.191.191,0,0,0,.135-.326l-15.41-15.41a.191.191,0,1,0-.27.27l15.41,15.41A.191.191,0,0,0,345.142,388.383Z" transform="translate(-321.893 -337.454)" fill="#3f3d56"/>
      </g>
      <g id="Group_5" data-name="Group 5" transform="translate(407.566 384.955)">
        <path id="Path_86-7" data-name="Path 86" d="M272.927,248.4c0-17.673-14.327-59.61-32-59.61s-32,41.937-32,59.61a32,32,0,1,0,64,0Z" transform="translate(-208.927 -188.791)" fill="#0bc200"/>
        <path id="Path_87-7" data-name="Path 87" d="M329.8,400.776a.263.263,0,0,0,.263-.263V290.188a.263.263,0,1,0-.526,0V400.513A.263.263,0,0,0,329.8,400.776Z" transform="translate(-297.804 -263.314)" fill="#3f3d56"/>
        <path id="Path_88-7" data-name="Path 88" d="M281.67,334.928a.263.263,0,0,0,.186-.077l12.666-12.665a.263.263,0,1,0-.372-.372l-12.666,12.665a.263.263,0,0,0,.186.449Z" transform="translate(-249.67 -286.755)" fill="#3f3d56"/>
        <path id="Path_89-7" data-name="Path 89" d="M351.015,394.328a.263.263,0,0,0,.186-.449L329.99,372.668a.263.263,0,1,0-.372.372l21.211,21.211A.262.262,0,0,0,351.015,394.328Z" transform="translate(-319.015 -324.228)" fill="#3f3d56"/>
      </g>
      <g id="Group_14" data-name="Group 14" transform="translate(-126.058 384.955)">
        <path id="Path_86-8" data-name="Path 86" d="M272.927,248.4c0-17.673-14.327-59.61-32-59.61s-32,41.937-32,59.61a32,32,0,1,0,64,0Z" transform="translate(-208.927 -188.791)" fill="#0bc200"/>
        <path id="Path_87-8" data-name="Path 87" d="M329.8,400.776a.263.263,0,0,0,.263-.263V290.188a.263.263,0,1,0-.526,0V400.513A.263.263,0,0,0,329.8,400.776Z" transform="translate(-297.804 -263.314)" fill="#3f3d56"/>
        <path id="Path_88-8" data-name="Path 88" d="M281.67,334.928a.263.263,0,0,0,.186-.077l12.666-12.665a.263.263,0,1,0-.372-.372l-12.666,12.665a.263.263,0,0,0,.186.449Z" transform="translate(-249.67 -286.755)" fill="#3f3d56"/>
        <path id="Path_89-8" data-name="Path 89" d="M351.015,394.328a.263.263,0,0,0,.186-.449L329.99,372.668a.263.263,0,1,0-.372.372l21.211,21.211A.262.262,0,0,0,351.015,394.328Z" transform="translate(-319.015 -324.228)" fill="#3f3d56"/>
      </g>
      <g id="Group_7" data-name="Group 7" transform="translate(335.61 397.705)">
        <path id="Path_86-9" data-name="Path 86" d="M266.849,242.74c0-15.995-12.966-53.949-28.961-53.949s-28.961,37.954-28.961,53.949a28.961,28.961,0,1,0,57.922,0Z" transform="translate(-208.927 -188.791)" fill="#0bc200"/>
        <path id="Path_87-9" data-name="Path 87" d="M329.779,390.249a.238.238,0,0,0,.238-.238V290.163a.238.238,0,1,0-.476,0V390.01A.238.238,0,0,0,329.779,390.249Z" transform="translate(-300.818 -265.841)" fill="#3f3d56"/>
        <path id="Path_88-9" data-name="Path 88" d="M281.645,333.676a.238.238,0,0,0,.168-.07l11.463-11.463a.238.238,0,0,0-.337-.337l-11.463,11.463a.238.238,0,0,0,.168.406Z" transform="translate(-252.684 -290.077)" fill="#3f3d56"/>
        <path id="Path_89-9" data-name="Path 89" d="M348.975,392.263a.238.238,0,0,0,.168-.406l-19.2-19.2a.238.238,0,1,0-.337.337l19.2,19.2A.238.238,0,0,0,348.975,392.263Z" transform="translate(-320.014 -328.821)" fill="#3f3d56"/>
      </g>
      <g id="Group_3" data-name="Group 3" transform="translate(0 172.264)">
        <path id="Path_86-10" data-name="Path 86" d="M371.952,340.635c0-45.018-36.494-151.844-81.513-151.844s-81.513,106.825-81.513,151.844a81.512,81.512,0,1,0,163.025,0Z" transform="translate(-208.927 -188.791)" fill="#1dd112"/>
        <path id="Path_87-10" data-name="Path 87" d="M330.211,572.293a.67.67,0,0,0,.67-.67V290.6a.67.67,0,1,0-1.34,0V571.623A.67.67,0,0,0,330.211,572.293Z" transform="translate(-248.699 -222.139)" fill="#3f3d56"/>
        <path id="Path_88-10" data-name="Path 88" d="M282.077,355.34a.668.668,0,0,0,.474-.2l32.262-32.262a.67.67,0,1,0-.948-.948L281.6,354.2a.67.67,0,0,0,.474,1.144Z" transform="translate(-200.564 -232.629)" fill="#3f3d56"/>
        <path id="Path_89-10" data-name="Path 89" d="M384.241,427.961a.67.67,0,0,0,.474-1.144l-54.029-54.03a.67.67,0,1,0-.948.948l54.029,54.03A.668.668,0,0,0,384.241,427.961Z" transform="translate(-302.728 -249.398)" fill="#3f3d56"/>
      </g>
      <g id="Group_11" data-name="Group 11" transform="translate(-214.567 222.882)">
        <path id="Path_86-11" data-name="Path 86" d="M348.386,318.685c0-38.51-31.219-129.894-69.729-129.894s-69.729,91.383-69.729,129.894a69.729,69.729,0,1,0,139.458,0Z" transform="translate(-208.927 -188.791)" fill="#1dd112"/>
        <path id="Path_87-11" data-name="Path 87" d="M330.114,531.475a.573.573,0,0,0,.573-.573V290.5a.573.573,0,1,0-1.147,0V530.9A.573.573,0,0,0,330.114,531.475Z" transform="translate(-260.385 -231.938)" fill="#3f3d56"/>
        <path id="Path_88-11" data-name="Path 88" d="M281.98,350.482a.571.571,0,0,0,.405-.168l27.6-27.6a.573.573,0,1,0-.811-.811l-27.6,27.6a.573.573,0,0,0,.405.979Z" transform="translate(-212.251 -245.51)" fill="#3f3d56"/>
        <path id="Path_89-11" data-name="Path 89" d="M376.333,419.957a.573.573,0,0,0,.405-.979L330.52,372.759a.573.573,0,1,0-.811.811l46.219,46.219A.571.571,0,0,0,376.333,419.957Z" transform="translate(-306.604 -267.206)" fill="#3f3d56"/>
      </g>
    </g>
    <g id="Group_8" data-name="Group 8" transform="translate(-424.249)">
      <g id="Group_1-2" data-name="Group 1">
        <path id="Path_86-12" data-name="Path 86" d="M208.927,415.337c0-67.165,54.448-226.546,121.614-226.546s121.614,159.38,121.614,226.546a121.614,121.614,0,1,1-243.228,0Z" transform="translate(-92.927 -905.791)" fill="#0bc200"/>
        <path id="Path_87-12" data-name="Path 87" d="M330.541,711.209a1,1,0,0,1-1-1V290.925a1,1,0,1,1,2,0V710.209A1,1,0,0,1,330.541,711.209Z" transform="translate(-92.927 -905.791)" fill="#3f3d56"/>
        <path id="Path_88-12" data-name="Path 88" d="M330.541,371.871a1,1,0,0,1-.707-.293L281.7,323.444a1,1,0,0,1,1.414-1.414l48.134,48.134a1,1,0,0,1-.707,1.707Z" transform="translate(-92.927 -905.791)" fill="#3f3d56"/>
        <path id="Path_89-12" data-name="Path 89" d="M330.541,455.2a1,1,0,0,1-.707-1.707l80.61-80.61a1,1,0,1,1,1.414,1.414l-80.61,80.61a1,1,0,0,1-.707.293Z" transform="translate(-92.927 -905.791)" fill="#3f3d56"/>
      </g>
      <g id="Group_2-2" data-name="Group 2" transform="translate(265 222.881)">
        <path id="Path_86-13" data-name="Path 86" d="M208.927,318.685c0-38.51,31.219-129.894,69.729-129.894s69.729,91.383,69.729,129.894a69.729,69.729,0,1,1-139.458,0Z" transform="translate(-92.927 -905.791)" fill="#0bc200"/>
        <path id="Path_87-13" data-name="Path 87" d="M330.114,531.475a.573.573,0,0,1-.573-.573V290.5a.573.573,0,1,1,1.147,0V530.9A.573.573,0,0,1,330.114,531.475Z" transform="translate(-144.385 -948.938)" fill="#3f3d56"/>
        <path id="Path_88-13" data-name="Path 88" d="M309.579,350.482a.571.571,0,0,1-.405-.168l-27.6-27.6a.573.573,0,1,1,.811-.811l27.6,27.6a.573.573,0,0,1-.405.979Z" transform="translate(-123.849 -962.51)" fill="#3f3d56"/>
        <path id="Path_89-13" data-name="Path 89" d="M330.114,419.957a.573.573,0,0,1-.405-.979l46.219-46.219a.573.573,0,0,1,.811.811L330.52,419.789A.572.572,0,0,1,330.114,419.957Z" transform="translate(-144.385 -984.206)" fill="#3f3d56"/>
      </g>
      <g id="Group_4-2" data-name="Group 4" transform="translate(456 384.65)">
        <path id="Path_86-14" data-name="Path 86" d="M208.927,248.4c0-17.673,14.327-59.611,32-59.611s32,41.937,32,59.611a32,32,0,1,1-64,0Z" transform="translate(-92.927 -905.791)" fill="#0bc200"/>
        <path id="Path_87-14" data-name="Path 87" d="M329.8,400.776a.263.263,0,0,1-.263-.263V290.188a.263.263,0,1,1,.526,0V400.513A.263.263,0,0,1,329.8,400.776Z" transform="translate(-181.804 -980.314)" fill="#3f3d56"/>
        <path id="Path_88-14" data-name="Path 88" d="M294.335,334.928a.263.263,0,0,1-.186-.077l-12.666-12.665a.263.263,0,1,1,.372-.372l12.666,12.665a.263.263,0,0,1-.186.449Z" transform="translate(-146.335 -1003.755)" fill="#3f3d56"/>
        <path id="Path_89-14" data-name="Path 89" d="M329.8,394.328a.263.263,0,0,1-.186-.449l21.211-21.211a.263.263,0,1,1,.372.372L329.99,394.251A.262.262,0,0,1,329.8,394.328Z" transform="translate(-181.804 -1041.228)" fill="#3f3d56"/>
      </g>
      <g id="Group_18" data-name="Group 18" transform="translate(675 372.65)">
        <path id="Path_86-15" data-name="Path 86" d="M208.927,248.4c0-17.673,14.327-59.611,32-59.611s32,41.937,32,59.611a32,32,0,1,1-64,0Z" transform="translate(-92.927 -905.791)" fill="#0bc200"/>
        <path id="Path_87-15" data-name="Path 87" d="M329.8,400.776a.263.263,0,0,1-.263-.263V290.188a.263.263,0,1,1,.526,0V400.513A.263.263,0,0,1,329.8,400.776Z" transform="translate(-181.804 -980.314)" fill="#3f3d56"/>
        <path id="Path_88-15" data-name="Path 88" d="M294.335,334.928a.263.263,0,0,1-.186-.077l-12.666-12.665a.263.263,0,1,1,.372-.372l12.666,12.665a.263.263,0,0,1-.186.449Z" transform="translate(-146.335 -1003.755)" fill="#3f3d56"/>
        <path id="Path_89-15" data-name="Path 89" d="M329.8,394.328a.263.263,0,0,1-.186-.449l21.211-21.211a.263.263,0,1,1,.372.372L329.99,394.251A.262.262,0,0,1,329.8,394.328Z" transform="translate(-181.804 -1041.228)" fill="#3f3d56"/>
      </g>
      <g id="Group_17" data-name="Group 17" transform="translate(830.069 391.177)">
        <path id="Path_86-16" data-name="Path 86" d="M208.927,248.4c0-17.673,14.327-59.611,32-59.611s32,41.937,32,59.611a32,32,0,1,1-64,0Z" transform="translate(-92.927 -905.791)" fill="#0bc200"/>
        <path id="Path_87-16" data-name="Path 87" d="M329.8,400.776a.263.263,0,0,1-.263-.263V290.188a.263.263,0,1,1,.526,0V400.513A.263.263,0,0,1,329.8,400.776Z" transform="translate(-181.804 -980.314)" fill="#3f3d56"/>
        <path id="Path_88-16" data-name="Path 88" d="M294.335,334.928a.263.263,0,0,1-.186-.077l-12.666-12.665a.263.263,0,1,1,.372-.372l12.666,12.665a.263.263,0,0,1-.186.449Z" transform="translate(-146.335 -1003.755)" fill="#3f3d56"/>
        <path id="Path_89-16" data-name="Path 89" d="M329.8,394.328a.263.263,0,0,1-.186-.449l21.211-21.211a.263.263,0,1,1,.372.372L329.99,394.251A.262.262,0,0,1,329.8,394.328Z" transform="translate(-181.804 -1041.228)" fill="#3f3d56"/>
      </g>
      <g id="Group_19" data-name="Group 19" transform="translate(611 384.955)">
        <path id="Path_86-17" data-name="Path 86" d="M208.927,248.4c0-17.673,14.327-59.611,32-59.611s32,41.937,32,59.611a32,32,0,1,1-64,0Z" transform="translate(-92.927 -905.791)" fill="#0bc200"/>
        <path id="Path_87-17" data-name="Path 87" d="M329.8,400.776a.263.263,0,0,1-.263-.263V290.188a.263.263,0,1,1,.526,0V400.513A.263.263,0,0,1,329.8,400.776Z" transform="translate(-181.804 -980.314)" fill="#3f3d56"/>
        <path id="Path_88-17" data-name="Path 88" d="M294.335,334.928a.263.263,0,0,1-.186-.077l-12.666-12.665a.263.263,0,1,1,.372-.372l12.666,12.665a.263.263,0,0,1-.186.449Z" transform="translate(-146.335 -1003.755)" fill="#3f3d56"/>
        <path id="Path_89-17" data-name="Path 89" d="M329.8,394.328a.263.263,0,0,1-.186-.449l21.211-21.211a.263.263,0,1,1,.372.372L329.99,394.251A.262.262,0,0,1,329.8,394.328Z" transform="translate(-181.804 -1041.228)" fill="#3f3d56"/>
      </g>
      <g id="Group_6-2" data-name="Group 6" transform="translate(346.459 422.548)">
        <path id="Path_86-18" data-name="Path 86" d="M208.927,232.1c0-12.84,10.409-43.308,23.249-43.308s23.249,30.468,23.249,43.308a23.249,23.249,0,1,1-46.5,0Z" transform="translate(-92.927 -905.791)" fill="#0bc200"/>
        <path id="Path_87-18" data-name="Path 87" d="M329.732,370.461a.191.191,0,0,1-.191-.191V290.116a.191.191,0,1,1,.382,0V370.27A.191.191,0,0,1,329.732,370.461Z" transform="translate(-190.483 -987.591)" fill="#3f3d56"/>
        <path id="Path_88-18" data-name="Path 88" d="M290.8,331.321a.191.191,0,0,1-.135-.056l-9.2-9.2a.191.191,0,0,1,.27-.27l9.2,9.2a.191.191,0,0,1-.135.326Z" transform="translate(-151.551 -1013.322)" fill="#3f3d56"/>
        <path id="Path_89-18" data-name="Path 89" d="M329.732,388.383a.191.191,0,0,1-.135-.326l15.41-15.41a.191.191,0,1,1,.27.27l-15.41,15.41A.191.191,0,0,1,329.732,388.383Z" transform="translate(-190.483 -1054.454)" fill="#3f3d56"/>
      </g>
      <g id="Group_5-2" data-name="Group 5" transform="translate(147.459 384.955)">
        <path id="Path_86-19" data-name="Path 86" d="M208.927,248.4c0-17.673,14.327-59.611,32-59.611s32,41.937,32,59.611a32,32,0,1,1-64,0Z" transform="translate(-92.927 -905.791)" fill="#0bc200"/>
        <path id="Path_87-19" data-name="Path 87" d="M329.8,400.776a.263.263,0,0,1-.263-.263V290.188a.263.263,0,1,1,.526,0V400.513A.263.263,0,0,1,329.8,400.776Z" transform="translate(-181.804 -980.314)" fill="#3f3d56"/>
        <path id="Path_88-19" data-name="Path 88" d="M294.335,334.928a.263.263,0,0,1-.186-.077l-12.666-12.665a.263.263,0,1,1,.372-.372l12.666,12.665a.263.263,0,0,1-.186.449Z" transform="translate(-146.335 -1003.755)" fill="#3f3d56"/>
        <path id="Path_89-19" data-name="Path 89" d="M329.8,394.328a.263.263,0,0,1-.186-.449l21.211-21.211a.263.263,0,1,1,.372.372L329.99,394.251A.262.262,0,0,1,329.8,394.328Z" transform="translate(-181.804 -1041.228)" fill="#3f3d56"/>
      </g>
      <g id="Group_7-2" data-name="Group 7" transform="translate(225.493 397.705)">
        <path id="Path_86-20" data-name="Path 86" d="M208.927,242.74c0-15.995,12.966-53.949,28.961-53.949s28.961,37.954,28.961,53.949a28.961,28.961,0,1,1-57.922,0Z" transform="translate(-92.927 -905.791)" fill="#0bc200"/>
        <path id="Path_87-20" data-name="Path 87" d="M329.779,390.249a.238.238,0,0,1-.238-.238V290.163a.238.238,0,1,1,.476,0V390.01A.238.238,0,0,1,329.779,390.249Z" transform="translate(-184.818 -982.841)" fill="#3f3d56"/>
        <path id="Path_88-20" data-name="Path 88" d="M293.107,333.676a.238.238,0,0,1-.168-.07l-11.463-11.463a.238.238,0,0,1,.337-.337l11.463,11.463a.238.238,0,0,1-.168.406Z" transform="translate(-148.146 -1007.077)" fill="#3f3d56"/>
        <path id="Path_89-20" data-name="Path 89" d="M329.779,392.263a.238.238,0,0,1-.168-.406l19.2-19.2a.238.238,0,1,1,.337.337l-19.2,19.2A.238.238,0,0,1,329.779,392.263Z" transform="translate(-184.818 -1045.821)" fill="#3f3d56"/>
      </g>
      <g id="Group_3-2" data-name="Group 3" transform="translate(456 171.958)">
        <path id="Path_86-21" data-name="Path 86" d="M208.927,340.635c0-45.018,36.494-151.844,81.513-151.844s81.513,106.825,81.513,151.844a81.512,81.512,0,1,1-163.025,0Z" transform="translate(-92.927 -905.791)" fill="#1dd112"/>
        <path id="Path_87-21" data-name="Path 87" d="M330.211,572.293a.67.67,0,0,1-.67-.67V290.6a.67.67,0,1,1,1.34,0V571.623A.67.67,0,0,1,330.211,572.293Z" transform="translate(-132.699 -939.139)" fill="#3f3d56"/>
        <path id="Path_88-21" data-name="Path 88" d="M314.339,355.34a.668.668,0,0,1-.474-.2L281.6,322.881a.67.67,0,1,1,.948-.948L314.813,354.2a.67.67,0,0,1-.474,1.144Z" transform="translate(-116.827 -949.629)" fill="#3f3d56"/>
        <path id="Path_89-21" data-name="Path 89" d="M330.211,427.961a.67.67,0,0,1-.474-1.144l54.029-54.03a.67.67,0,0,1,.948.948l-54.029,54.03A.668.668,0,0,1,330.211,427.961Z" transform="translate(-132.699 -966.398)" fill="#3f3d56"/>
      </g>
      <g id="Group_15" data-name="Group 15" transform="translate(739 172.264)">
        <path id="Path_86-22" data-name="Path 86" d="M208.927,340.635c0-45.018,36.494-151.844,81.513-151.844s81.513,106.825,81.513,151.844a81.512,81.512,0,1,1-163.025,0Z" transform="translate(-92.927 -905.791)" fill="#1dd112"/>
        <path id="Path_87-22" data-name="Path 87" d="M330.211,572.293a.67.67,0,0,1-.67-.67V290.6a.67.67,0,1,1,1.34,0V571.623A.67.67,0,0,1,330.211,572.293Z" transform="translate(-132.699 -939.139)" fill="#3f3d56"/>
        <path id="Path_88-22" data-name="Path 88" d="M314.339,355.34a.668.668,0,0,1-.474-.2L281.6,322.881a.67.67,0,1,1,.948-.948L314.813,354.2a.67.67,0,0,1-.474,1.144Z" transform="translate(-116.827 -949.629)" fill="#3f3d56"/>
        <path id="Path_89-22" data-name="Path 89" d="M330.211,427.961a.67.67,0,0,1-.474-1.144l54.029-54.03a.67.67,0,0,1,.948.948l-54.029,54.03A.668.668,0,0,1,330.211,427.961Z" transform="translate(-132.699 -966.398)" fill="#3f3d56"/>
      </g>
    </g>
    <g id="Group_10" data-name="Group 10" transform="translate(-232.183 -2252.273)">
      <path id="Path_3" data-name="Path 3" d="M648.821,617.487a39.787,39.787,0,0,1-5.168,16.811,42.205,42.205,0,0,1,0,41.2,39.357,39.357,0,0,1,4.912,14.416l-14.837,25.505,15.048-14.893a39.811,39.811,0,0,1-5.123,16.168,42.227,42.227,0,0,1,0,41.207,42.205,42.205,0,0,1,0,41.2,40.774,40.774,0,0,1,5.367,20.593c0,18.619-11.522,33.7-25.749,33.7h-1.187a196.291,196.291,0,0,0-23.686,0h-2.373a196.291,196.291,0,0,0-23.686,0h-1.187c-14.216,0-25.749-15.081-25.749-33.7a40.564,40.564,0,0,1,5.378-20.593,40.609,40.609,0,0,1-5.412-20.548,43.6,43.6,0,0,1,.743-7.973l20.615,12.8L548.12,763.464a35.043,35.043,0,0,1,2.628-5.544,42.139,42.139,0,0,1,0-41.207,42.139,42.139,0,0,1,0-41.2,40.032,40.032,0,0,1-5.3-18.33L580.767,679.1l-33.733-36.062a38.213,38.213,0,0,1,3.715-8.716,38.878,38.878,0,0,1-4.79-13.462,42.872,42.872,0,0,1-.588-7.13,40.609,40.609,0,0,1,5.378-20.6,40.564,40.564,0,0,1-5.378-20.593c0-18.619,11.533-33.711,25.749-33.711a21.269,21.269,0,0,1,13.03,4.635,20.626,20.626,0,0,1,26.059,0,21.247,21.247,0,0,1,13.03-4.635c14.227,0,25.749,15.092,25.749,33.711a40.774,40.774,0,0,1-5.334,20.57,40.82,40.82,0,0,1,5.367,20.6C648.987,614.98,648.932,616.245,648.821,617.487Z" transform="translate(311.668 1204.305)" fill="#9a5707"/>
      <path id="Path_4" data-name="Path 4" d="M643.65,593.1a40.819,40.819,0,0,1,5.367,20.6,28.519,28.519,0,0,1-.166,3.781,122.047,122.047,0,0,1-45.7-28.355,121.981,121.981,0,0,1-57.165,31.7,42.871,42.871,0,0,1-.588-7.13,40.608,40.608,0,0,1,5.378-20.6,40.565,40.565,0,0,1-5.378-20.593c0-18.619,11.533-33.711,25.749-33.711a21.269,21.269,0,0,1,13,4.657,20.626,20.626,0,0,1,26.059,0,21.247,21.247,0,0,1,13.03-4.635c14.227,0,25.749,15.092,25.749,33.711a40.774,40.774,0,0,1-5.334,20.57Z" transform="translate(311.671 1204.303)" opacity="0.1"/>
      <path id="Path_5" data-name="Path 5" d="M923.354,501.157l61.534-29.575a122.7,122.7,0,0,0-52.441-46.574c.344-3.759.532-7.563.532-11.411a121.979,121.979,0,0,0-7.762-43.026l-77.18-27.745.277-.566,65.337,5.378a122.823,122.823,0,0,0-53.572-45.887,124.216,124.216,0,0,0,.732-13.385,121.883,121.883,0,0,0-9.47-47.262l-36.594,36.228,29.464-50.578a122.924,122.924,0,0,0-17.488-23.121l-38.036,37.625,27.568-47.328a121.9,121.9,0,0,0-43.647-23.043,122.535,122.535,0,0,0-64.772-78.733l-53.45,52.873L689.362,84.97a122.369,122.369,0,0,0-152.9,84.754,122.092,122.092,0,0,0-58.373,33.833l42.882,40.775-53.062-28.754A121.748,121.748,0,0,0,443.9,288.356c0,1.73,0,3.449.122,5.168A122.147,122.147,0,0,0,372,336.605l34.72,33.012-42.139-22.844a121.692,121.692,0,0,0-19.894,66.856c0,1.419,0,2.828.089,4.236A121.981,121.981,0,0,0,293.125,446.7l46.452,44.157L281.414,459.34a121.7,121.7,0,0,0-26.924,76.515c0,1.73,0,3.449.122,5.168l57.908,55.047-54.137-29.242A122.291,122.291,0,0,0,462.911,622.65a122.247,122.247,0,0,0,171.882.488,122.247,122.247,0,0,0,165.849,5.046,122.3,122.3,0,0,0,192.8-140.089Z" transform="translate(279.987 1154.32)" fill="#0bc200"/>
      <path id="Path_6" data-name="Path 6" d="M938.975,501.714c-25.882,13.13-56.9,2.806-84.222-6.975-35.751-12.808-72.29-24.54-110.1-28.133s-77.358,1.453-110.259,20.426c-19.65,11.333-36.594,27.368-57.464,36.295-58.828,25.183-127.947-12.841-189.913,3.116-36.461,9.381-64.14,35.4-91.153,62.9a122.225,122.225,0,0,0,162.556-8.749,122.247,122.247,0,0,0,171.882.488,122.247,122.247,0,0,0,165.838,5.1,122.3,122.3,0,0,0,200.37-114.917,82.9,82.9,0,0,0-31.626,12.353C956.108,489.427,948.39,496.935,938.975,501.714Z" transform="translate(284.493 1196.323)" opacity="0.1"/>
      <path id="Path_7" data-name="Path 7" d="M518.39,162.84c25.505,5.9,50.533,15.625,70.771,32.159s35.252,40.6,37.049,66.712" transform="translate(308.729 1163.356)" opacity="0.1"/>
      <path id="Path_8" data-name="Path 8" d="M665,371.091c9.548-24.341,22.8-47.683,42.139-65.348s45.266-28.976,71.325-26.98" transform="translate(324.697 1175.957)" opacity="0.1"/>
      <path id="Path_9" data-name="Path 9" d="M366.9,382.8c26.048,2.129,52.263,8.1,74.7,21.524s40.786,35,46.375,60.547" transform="translate(292.23 1187.313)" opacity="0.1"/>
      <circle id="Ellipse_1" data-name="Ellipse 1" cx="18.042" cy="18.042" r="18.042" transform="translate(782.996 1380.488)" fill="#ff6f61"/>
      <circle id="Ellipse_2" data-name="Ellipse 2" cx="18.042" cy="18.042" r="18.042" transform="translate(801.038 1303.308)" fill="#ff6f61"/>
      <circle id="Ellipse_3" data-name="Ellipse 3" cx="18.042" cy="18.042" r="18.042" transform="translate(705.815 1424.579)" fill="#ff6f61"/>
      <circle id="Ellipse_4" data-name="Ellipse 4" cx="18.042" cy="18.042" r="18.042" transform="translate(1034.564 1303.308)" fill="#ff6f61"/>
      <circle id="Ellipse_5" data-name="Ellipse 5" cx="18.042" cy="18.042" r="18.042" transform="translate(1112.732 1380.488)" fill="#ff6f61"/>
      <circle id="Ellipse_6" data-name="Ellipse 6" cx="18.042" cy="18.042" r="18.042" transform="translate(1186.907 1506.771)" fill="#ff6f61"/>
      <circle id="Ellipse_7" data-name="Ellipse 7" cx="18.042" cy="18.042" r="18.042" transform="translate(1255.061 1634.053)" fill="#ff6f61"/>
      <circle id="Ellipse_8" data-name="Ellipse 8" cx="18.042" cy="18.042" r="18.042" transform="translate(1062.62 1764.35)" fill="#ff6f61"/>
      <circle id="Ellipse_9" data-name="Ellipse 9" cx="18.042" cy="18.042" r="18.042" transform="translate(724.866 1764.35)" fill="#ff6f61"/>
      <circle id="Ellipse_10" data-name="Ellipse 10" cx="18.042" cy="18.042" r="18.042" transform="translate(910.277 1402.533)" fill="#ff6f61"/>
      <circle id="Ellipse_11" data-name="Ellipse 11" cx="18.042" cy="18.042" r="18.042" transform="translate(971.423 1524.813)" fill="#ff6f61"/>
      <circle id="Ellipse_12" data-name="Ellipse 12" cx="18.042" cy="18.042" r="18.042" transform="translate(1218.977 1767.355)" fill="#ff6f61"/>
      <circle id="Ellipse_13" data-name="Ellipse 13" cx="18.042" cy="18.042" r="18.042" transform="translate(760.939 1628.042)" fill="#ff6f61"/>
      <circle id="Ellipse_14" data-name="Ellipse 14" cx="18.042" cy="18.042" r="18.042" transform="translate(917.296 1278.257)" fill="#ff6f61"/>
      <circle id="Ellipse_15" data-name="Ellipse 15" cx="18.042" cy="18.042" r="18.042" transform="translate(606.59 1551.871)" fill="#ff6f61"/>
      <circle id="Ellipse_16" data-name="Ellipse 16" cx="18.042" cy="18.042" r="18.042" transform="translate(516.39 1710.224)" fill="#ff6f61"/>
      <circle id="Ellipse_17" data-name="Ellipse 17" cx="18.042" cy="18.042" r="18.042" transform="translate(544.457 1600.985)" fill="#ff6f61"/>
      <path id="Path_10" data-name="Path 10" d="M850.421,401.225c-2.795-.4-6.066-1.83-8.871-1.785s-4.9,8.516-7.685,8.949-6.365-3.759-9.082-2.972-3.937,5.334-6.543,6.41-5.722.532-8.206,1.852-3.471,4.746-5.811,6.276-6.653.177-8.871,1.9-3.016,5.079-5.145,6.92-7.441.189-9.481,2.129-5.2,2.883-7.175,4.89-1.342,6.576-3.327,8.616-3.682,4.269-5.545,6.321" transform="translate(335.554 1189.125)" fill="#ededf4"/>
      <path id="Path_11" data-name="Path 11" d="M515.528,382.8c-1.375-2.473-2.218-6-3.9-8.206s-9.98,1.464-12.043-.488-.7-7.5-2.961-9.182-6.72.211-9.148-1.209-3.837-4.314-6.387-5.545-5.9.189-8.539-.743-4.081-5.3-6.787-6.044-5.888.743-8.638.166-4.6-6.033-7.385-6.476-5.434-2.484-8.228-2.85-6.066,3.061-8.871,2.761-5.633-.355-8.417-.643" transform="translate(298.473 1182.89)" fill="#ededf4"/>
      <path id="Path_12" data-name="Path 12" d="M565.14,453.368c1.564-2.528,5.744-4.724,8.605-5.545s6.454.4,9.282.643,5.622,2.44,8.505,2.717,6.775,2.617,9.614,1.874a54.756,54.756,0,0,0,8.117-3.327c2.672-1.209,3.837-5.922,6.654-6.709s6.654,3.77,9.492,3.327,4.879-6.5,7.762-6.809,5.911.222,8.871,0c2.14-.177,2.916,4.125,4.935,4.835,2.806.987,9.137-3.038,11.011-.61s1.109,6.3,3.881,7.263" transform="translate(313.821 1193.481)" fill="#ededf4"/>
      <path id="Path_13" data-name="Path 13" d="M611.429,239.618a15.436,15.436,0,0,1,7,1.308c2.362,1.109,5.545,1.009,7.274,2.961s2.029,5.145,2.761,7.663c.455-1.586,2.517-3.637,2.517-5.378,0-2.451-2.063-4.746-2.95-6.875a18.1,18.1,0,0,0-3.726-6c-1.663-1.663-3.083-4.535-5.279-5.445s-5.145.377-7.6.377a17.831,17.831,0,0,0-6.9,1.286c-2.218.909-5.179,1.253-6.842,2.905s-1.874,4.691-2.794,6.9.255,4.436.255,6.853c0,1.741-2.218,2.484-1.774,4.07a17.023,17.023,0,0,1,3.493-6.653,20.8,20.8,0,0,1,6.421-5.2C605.585,237.378,608.745,239.618,611.429,239.618Z" transform="translate(316.89 1170.401)" fill="#ededf4"/>
      <path id="Path_14" data-name="Path 14" d="M748.779,564.088a15.436,15.436,0,0,1,7,1.309c2.362,1.109,5.545,1.009,7.274,2.961s2.029,5.145,2.761,7.674c.455-1.6,2.517-3.648,2.517-5.389,0-2.451-2.063-4.746-2.95-6.875a18.1,18.1,0,0,0-3.726-6c-1.663-1.652-3.083-4.524-5.278-5.445s-5.145.377-7.6.377a17.833,17.833,0,0,0-6.9,1.286c-2.218.909-5.179,1.253-6.842,2.916s-1.874,4.691-2.794,6.886.255,4.436.255,6.853c0,1.741-2.218,2.484-1.774,4.07a17.1,17.1,0,0,1,3.493-6.653,20.881,20.881,0,0,1,6.432-5.2C742.968,561.859,746.129,564.088,748.779,564.088Z" transform="translate(331.85 1205.74)" fill="#ededf4"/>
      <path id="Path_15" data-name="Path 15" d="M889.779,564.088a15.392,15.392,0,0,1,6.986,1.309c2.373,1.109,5.545,1.009,7.286,2.961s2.029,5.145,2.75,7.674c.466-1.6,2.517-3.648,2.517-5.389,0-2.451-2.063-4.746-2.939-6.875a18.306,18.306,0,0,0-3.737-6c-1.652-1.652-3.072-4.524-5.279-5.445s-5.134.377-7.585.377a17.742,17.742,0,0,0-6.9,1.286c-2.218.909-5.179,1.253-6.842,2.916s-1.874,4.691-2.794,6.886.255,4.436.255,6.853c0,1.741-2.218,2.484-1.774,4.07a17.222,17.222,0,0,1,3.482-6.653,21.137,21.137,0,0,1,6.432-5.2C883.957,561.859,887.129,564.088,889.779,564.088Z" transform="translate(347.207 1205.74)" fill="#ededf4"/>
      <path id="Path_16" data-name="Path 16" d="M469.264,442.248a15.524,15.524,0,0,1,6.654-2.473c2.595-.277,5.312-1.974,7.762-1.164s4.436,3.327,6.31,5.145c-.421-1.608.266-4.436-.632-5.9-1.253-2.1-4.192-3.027-6.033-4.436a18.141,18.141,0,0,0-6.288-3.227c-2.273-.566-4.957-2.284-7.319-1.93s-4.225,2.928-6.321,4.192a17.742,17.742,0,0,0-5.267,4.646c-1.419,1.918-3.77,3.748-4.347,6.021s.776,4.979,1.109,7.341,2.451,3.671,3.7,5.766c.9,1.486-.588,3.327.621,4.436a16.867,16.867,0,0,1-.4-7.463,20.625,20.625,0,0,1,2.839-7.762C463.121,443.379,466.958,443.634,469.264,442.248Z" transform="translate(301.677 1192.259)" fill="#ededf4"/>
      <path id="Path_17" data-name="Path 17" d="M435.814,565.163a15.613,15.613,0,0,1,6.653-2.473c2.584-.277,5.312-1.974,7.762-1.109s4.38,3.327,6.31,5.145c-.421-1.608.266-4.436-.632-5.9-1.253-2.1-4.192-3.027-6.044-4.436a18.084,18.084,0,0,0-6.276-3.227c-2.284-.566-4.968-2.284-7.33-1.93s-4.214,2.928-6.321,4.192a17.887,17.887,0,0,0-5.256,4.646c-1.419,1.918-3.77,3.748-4.347,6.021s.776,4.979,1.109,7.341,2.451,3.67,3.7,5.766c.9,1.486-.6,3.271.621,4.436a16.866,16.866,0,0,1-.4-7.463,20.625,20.625,0,0,1,2.839-7.762C429.682,566.294,433.519,566.5,435.814,565.163Z" transform="translate(298.034 1205.652)" fill="#ededf4"/>
      <path id="Path_18" data-name="Path 18" d="M334.594,375.377a15.525,15.525,0,0,1,6.654-2.473c2.595-.277,5.323-1.974,7.762-1.164s4.436,3.327,6.31,5.134c-.421-1.6.266-4.436-.632-5.888-1.253-2.1-4.192-3.027-6.033-4.436a18.108,18.108,0,0,0-6.288-3.216c-2.218-.577-4.957-2.284-7.319-1.93s-4.225,2.928-6.321,4.192a17.743,17.743,0,0,0-5.267,4.646c-1.419,1.918-3.77,3.737-4.347,6.021s.776,4.979,1.109,7.341,2.451,3.659,3.7,5.766c.9,1.486-.588,3.26.621,4.436a16.877,16.877,0,0,1-.4-7.463,20.626,20.626,0,0,1,2.839-7.762C328.451,376.486,332.31,376.741,334.594,375.377Z" transform="translate(287.01 1184.977)" fill="#ededf4"/>
      <path id="Path_19" data-name="Path 19" d="M278.533,422.378a15.525,15.525,0,0,1,6.654-2.473c2.595-.288,5.323-1.974,7.762-1.164s4.436,3.327,6.31,5.134c-.421-1.6.266-4.436-.632-5.888-1.253-2.1-4.181-3.027-6.033-4.436a18.154,18.154,0,0,0-6.276-3.216c-2.284-.577-4.968-2.284-7.33-1.941s-4.225,2.939-6.321,4.192a17.932,17.932,0,0,0-5.256,4.658c-1.431,1.918-3.781,3.737-4.347,6.021s.776,4.979,1.109,7.341,2.451,3.659,3.715,5.755c.887,1.5-.6,3.271.61,4.436a17.21,17.21,0,0,1-.4-7.463,21.136,21.136,0,0,1,2.839-7.762C272.423,423.487,276.249,423.742,278.533,422.378Z" transform="translate(280.906 1190.095)" fill="#ededf4"/>
      <path id="Path_20" data-name="Path 20" d="M253.244,518.161a15.624,15.624,0,0,1,6.654-2.473c2.595-.277,5.323-1.974,7.762-1.109s4.38,3.327,6.31,5.145c-.432-1.608.255-4.436-.632-5.9-1.264-2.1-4.192-3.027-6.044-4.436a18.376,18.376,0,0,0-6.276-3.227c-2.284-.566-4.968-2.218-7.33-1.93s-4.225,2.939-6.321,4.192a17.887,17.887,0,0,0-5.256,4.646c-1.419,1.918-3.781,3.748-4.347,6.021s.776,4.99,1.109,7.341,2.462,3.67,3.715,5.766c.9,1.5-.6,3.271.621,4.436a17.089,17.089,0,0,1-.41-7.474,20.837,20.837,0,0,1,2.85-7.762C247.112,519.292,250.949,519.5,253.244,518.161Z" transform="translate(278.15 1200.535)" fill="#ededf4"/>
      <path id="Path_21" data-name="Path 21" d="M423.164,261.488a15.625,15.625,0,0,1,6.654-2.473c2.595-.288,5.323-1.974,7.762-1.164s4.38,3.327,6.31,5.134c-.432-1.6.255-4.436-.632-5.888-1.264-2.1-4.192-3.027-6.044-4.436a18.154,18.154,0,0,0-6.276-3.216c-2.284-.577-4.968-2.284-7.33-1.941s-4.225,2.939-6.321,4.192a17.931,17.931,0,0,0-5.256,4.657c-1.419,1.907-3.781,3.737-4.347,6.021s.776,4.979,1.109,7.341,2.462,3.659,3.715,5.755c.9,1.5-.6,3.271.621,4.436a17.045,17.045,0,0,1-.41-7.463,20.892,20.892,0,0,1,2.85-7.762C417.032,262.608,420.857,262.863,423.164,261.488Z" transform="translate(296.657 1172.572)" fill="#ededf4"/>
      <path id="Path_22" data-name="Path 22" d="M492.754,221.717a15.614,15.614,0,0,1,6.654-2.473c2.584-.277,5.312-1.974,7.762-1.164s4.38,3.327,6.31,5.134c-.421-1.6.266-4.436-.632-5.888-1.253-2.1-4.192-3.027-6.044-4.436a17.965,17.965,0,0,0-6.276-3.216c-2.273-.577-4.968-2.284-7.319-1.93s-4.225,2.928-6.332,4.192a17.887,17.887,0,0,0-5.256,4.646c-1.419,1.918-3.77,3.737-4.347,6.021s.776,4.979,1.109,7.341,2.451,3.659,3.7,5.766c.9,1.486-.588,3.26.621,4.436a16.879,16.879,0,0,1-.4-7.463,20.625,20.625,0,0,1,2.839-7.762C486.622,222.837,490.459,223.092,492.754,221.717Z" transform="translate(304.236 1168.241)" fill="#ededf4"/>
      <path id="Path_23" data-name="Path 23" d="M507.224,150.318a15.525,15.525,0,0,1,6.654-2.473c2.595-.288,5.323-1.974,7.762-1.164s4.436,3.327,6.31,5.134c-.421-1.6.266-4.436-.632-5.888-1.253-2.1-4.192-3.027-6.033-4.436A18.108,18.108,0,0,0,515,138.275c-2.273-.577-4.957-2.284-7.319-1.941s-4.225,2.939-6.321,4.192a17.986,17.986,0,0,0-5.267,4.657c-1.419,1.907-3.77,3.737-4.347,6.021s.776,4.979,1.109,7.341,2.451,3.659,3.7,5.755c.9,1.5-.588,3.271.621,4.436a16.878,16.878,0,0,1-.4-7.463,20.68,20.68,0,0,1,2.839-7.762C501.081,151.493,504.918,151.693,507.224,150.318Z" transform="translate(305.812 1160.464)" fill="#ededf4"/>
      <path id="Path_24" data-name="Path 24" d="M617.779,126.638a15.392,15.392,0,0,1,6.986,1.309c2.373,1.109,5.6,1.009,7.286,2.961s2.029,5.145,2.75,7.674c.466-1.6,2.517-3.648,2.517-5.389,0-2.451-2.063-4.746-2.939-6.875a18.309,18.309,0,0,0-3.737-6c-1.652-1.652-3.072-4.524-5.278-5.445s-5.134.377-7.585.377a17.742,17.742,0,0,0-6.9,1.286c-2.218.909-5.19,1.253-6.842,2.916s-1.874,4.691-2.794,6.886.255,4.436.255,6.853c0,1.741-2.218,2.484-1.774,4.07a17.221,17.221,0,0,1,3.482-6.654,21,21,0,0,1,6.432-5.2C611.9,124.409,615.073,126.638,617.779,126.638Z" transform="translate(317.582 1158.095)" fill="#ededf4"/>
      <path id="Path_25" data-name="Path 25" d="M727.412,153.809a15.524,15.524,0,0,1,5.733,4.225c1.663,2.007,4.591,3.327,5.256,5.833s-.4,5.545-.843,8.1c1.109-1.231,3.848-2.218,4.6-3.759,1.109-2.218.211-5.168.344-7.463a18.2,18.2,0,0,0-.765-7.019c-.776-2.218-.809-5.412-2.4-7.2s-4.791-1.907-6.986-2.961a17.743,17.743,0,0,0-6.775-1.841c-2.384-.133-5.212-1.109-7.43-.333s-3.726,3.393-5.545,4.979-1.7,4.07-2.761,6.276c-.754,1.564-3.072,1.275-3.327,2.916a17,17,0,0,1,6.01-4.436,20.881,20.881,0,0,1,8.051-1.9C723.109,149.274,724.995,152.645,727.412,153.809Z" transform="translate(329.22 1160.987)" fill="#ededf4"/>
      <path id="Path_26" data-name="Path 26" d="M800.622,224.31a15.525,15.525,0,0,1,5.733,4.214c1.663,2.018,4.591,3.327,5.256,5.844s-.4,5.545-.843,8.1c1.109-1.231,3.848-2.218,4.6-3.759,1.109-2.218.211-5.168.344-7.474a18.164,18.164,0,0,0-.765-7.008c-.776-2.218-.809-5.412-2.4-7.2s-4.791-1.907-6.986-2.972a17.965,17.965,0,0,0-6.775-1.83c-2.384-.144-5.212-1.109-7.43-.344s-3.726,3.4-5.545,4.99-1.7,4.07-2.761,6.276c-.754,1.564-3.072,1.275-3.327,2.916a17.033,17.033,0,0,1,6.01-4.436,21.069,21.069,0,0,1,8.051-1.885C796.319,219.807,798.2,223.134,800.622,224.31Z" transform="translate(337.193 1168.665)" fill="#ededf4"/>
      <path id="Path_27" data-name="Path 27" d="M863.892,332.77a15.525,15.525,0,0,1,5.733,4.214c1.652,2.007,4.591,3.327,5.256,5.844s-.4,5.545-.843,8.1c1.109-1.231,3.837-2.218,4.591-3.759,1.109-2.218.222-5.168.344-7.474a18.2,18.2,0,0,0-.754-7.019c-.776-2.218-.81-5.411-2.4-7.186s-4.791-1.907-7-2.972a18.085,18.085,0,0,0-6.764-1.841c-2.384-.133-5.212-1.109-7.43-.333s-3.726,3.4-5.545,4.99-1.7,4.07-2.761,6.276c-.754,1.564-3.072,1.275-3.327,2.916a17.034,17.034,0,0,1,6.01-4.436,20.872,20.872,0,0,1,8.051-1.885C859.634,328.235,861.474,331.606,863.892,332.77Z" transform="translate(344.084 1180.477)" fill="#ededf4"/>
      <path id="Path_28" data-name="Path 28" d="M669.561,352.649a15.414,15.414,0,0,1,5.733,4.225c1.663,2.007,4.591,3.327,5.256,5.833s-.388,5.545-.832,8.1c1.109-1.231,3.837-2.218,4.591-3.759,1.109-2.218.211-5.168.344-7.463a18.2,18.2,0,0,0-.754-7.019c-.776-2.218-.81-5.411-2.406-7.2s-4.779-1.9-6.986-2.961a17.676,17.676,0,0,0-6.775-1.841c-2.384-.133-5.2-1.109-7.419-.333s-3.737,3.393-5.545,4.979-1.7,4.07-2.761,6.276c-.754,1.575-3.072,1.286-3.327,2.916a16.9,16.9,0,0,1,6.01-4.436,20.825,20.825,0,0,1,8.04-1.9C665.258,348.114,667.143,351.485,669.561,352.649Z" transform="translate(322.92 1182.644)" fill="#ededf4"/>
      <path id="Path_29" data-name="Path 29" d="M925.352,449.359a15.526,15.526,0,0,1,5.733,4.225c1.652,2.007,4.58,3.327,5.256,5.833s-.4,5.545-.843,8.1c1.109-1.231,3.837-2.218,4.591-3.759,1.109-2.218.222-5.168.344-7.463a18.2,18.2,0,0,0-.754-7.019c-.776-2.218-.809-5.411-2.4-7.2s-4.791-1.907-7-2.961a17.676,17.676,0,0,0-6.764-1.841c-2.384-.133-5.212-1.109-7.43-.333s-3.726,3.393-5.545,4.979-1.7,4.07-2.761,6.276c-.754,1.564-3.072,1.275-3.327,2.916a16.9,16.9,0,0,1,6.01-4.436,20.881,20.881,0,0,1,8.051-1.9C921.049,444.8,922.935,448.195,925.352,449.359Z" transform="translate(350.778 1193.177)" fill="#ededf4"/>
    </g>
  </g>
</svg>
